<?xml version="1.0" standalone="no"?>
<!DOCTYPE svg PUBLIC "-//W3C//DTD SVG 20010904//EN"
 "http://www.w3.org/TR/2001/REC-SVG-20010904/DTD/svg10.dtd">
<svg version="1.0" xmlns="http://www.w3.org/2000/svg"
 width="1024.000000pt" height="1024.000000pt" viewBox="200 200 628 630"
 preserveAspectRatio="xMidYMid meet">

<g transform="translate(0.000000,1024.000000) scale(0.100000,-0.100000)"
fill="rgb(224, 35, 78)" stroke="none">
<path d="M4750 8075 c-507 -58 -998 -247 -1424 -548 -277 -196 -573 -502 -760
-786 -591 -896 -657 -2044 -173 -3008 238 -474 556 -843 987 -1144 250 -176
549 -316 775 -365 109 -23 303 -23 413 0 684 145 1206 728 1286 1436 l7 55
-100 22 c-337 73 -621 291 -766 588 -98 200 -98 198 -102 743 -5 524 -7 504
60 539 24 12 66 18 172 21 l140 4 -3 527 c-3 557 -1 587 44 652 72 105 235
112 311 13 52 -69 52 -69 53 -651 l0 -543 408 0 407 0 -3 532 c-2 376 1 545 9
574 42 156 241 205 342 85 55 -66 57 -86 57 -662 l0 -527 153 -4 c121 -3 159
-7 184 -21 63 -34 63 -35 63 -464 0 -214 -5 -427 -10 -473 -33 -265 -169 -518
-369 -686 -179 -150 -414 -253 -617 -271 l-71 -6 -12 -101 c-55 -476 -318
-928 -711 -1225 -153 -115 -373 -232 -548 -291 l-84 -28 99 -7 c251 -19 629
13 873 75 747 188 1369 617 1792 1235 634 926 712 2109 206 3098 -397 773
-1159 1358 -2028 1553 -239 53 -356 66 -655 70 -197 2 -317 -1 -405 -11z
m-1000 -1541 c1 -122 -8 -224 -25 -300 -4 -18 7 -25 98 -58 182 -67 361 -160
421 -219 68 -66 88 -120 116 -308 12 -79 28 -156 36 -171 7 -14 71 -95 142
-180 135 -162 222 -278 222 -297 0 -19 -84 -151 -138 -217 -111 -135 -248
-185 -341 -126 -14 9 -60 43 -101 76 -176 139 -322 160 -436 62 -134 -115
-164 -388 -65 -611 86 -194 307 -394 514 -464 27 -9 48 -21 48 -26 -1 -35
-243 -29 -375 10 -137 40 -301 128 -401 217 -19 16 -35 28 -35 25 0 -3 18 -36
39 -74 21 -37 37 -70 36 -71 -2 -2 -46 16 -99 41 -172 82 -265 157 -377 307
-83 109 -177 283 -208 385 -12 39 -21 54 -26 44 -5 -7 -11 -81 -14 -163 l-6
-150 -47 99 c-72 153 -99 270 -105 450 -6 165 3 243 42 381 26 90 123 304 152
336 49 55 -87 -35 -169 -110 -32 -30 -58 -49 -58 -43 0 7 16 56 36 109 103
276 235 453 524 699 250 215 422 394 532 555 l43 63 12 -65 c7 -36 13 -128 13
-206z"/>
<path d="M3914 5595 c9 -87 29 -130 77 -165 57 -41 239 -85 239 -58 -1 42 -30
141 -53 180 -35 60 -104 96 -202 105 l-68 6 7 -68z"/>
<path d="M6147 5233 c-69 -23 -128 -80 -163 -155 -27 -60 -29 -70 -29 -198 0
-124 2 -139 26 -190 36 -77 71 -115 135 -146 106 -52 249 -41 340 25 41 31 87
103 98 156 l7 30 -74 -3 c-72 -3 -73 -4 -92 -40 -27 -51 -76 -74 -143 -69 -64
5 -98 27 -132 88 -22 39 -25 55 -25 149 0 93 3 111 25 155 33 62 73 87 142 87
63 -1 95 -22 123 -80 l20 -41 71 -1 72 0 -9 41 c-30 131 -116 198 -264 205
-57 3 -94 -1 -128 -13z"/>
<path d="M5120 4880 l0 -350 73 0 72 0 -2 252 c-2 217 0 247 11 213 7 -22 43
-136 81 -253 l69 -213 74 3 75 3 73 225 c40 124 73 233 73 242 1 9 4 19 9 21
4 3 6 -107 4 -244 l-4 -249 71 0 71 0 0 350 0 350 -105 0 -104 0 -29 -92 c-16
-51 -51 -164 -78 -250 -26 -87 -50 -156 -51 -154 -2 2 -41 113 -86 247 l-83
244 -107 3 -107 3 0 -351z"/>
<path d="M6625 4880 l0 -350 73 0 72 0 0 120 0 120 78 0 c92 0 169 20 212 57
64 53 94 163 70 253 -15 57 -80 124 -135 139 -22 6 -114 11 -205 11 l-165 0 0
-350z m336 201 c39 -40 42 -115 5 -158 -23 -26 -31 -28 -110 -32 l-86 -3 0
111 0 111 81 0 c76 0 82 -2 110 -29z"/>
</g>
</svg>